# xmcd
#
# Track frame offsets: 
#        150
#        13528
#        24710
#        39523
#        49521
#        65468
#        73656
#        98003
#        112506
#        129213
#        138807
#        149974
#        164354
#        176056
#
# Disc length: 2574 seconds
#
# Revision: 2
# Processed by: cddbd v1.5.2PL0 Copyright (c) Steve Scherf et al.
# Submitted via: ExactAudioCopyFreeDBPlugin 1.0
#
DISCID=b90a0c0e
DTITLE=Tom Astor - Trucker Weihnacht [CD 1)
DYEAR=2010
DGENRE=Country
TTITLE0=Weiße Weihnacht (White Chrismas)
TTITLE1=Winterzeit - Glatteiszeit (Jingle Bells)
TTITLE2=Fröhliche Weihnacht
TTITLE3=Eine ladung Weihnachtsbäume
TTITLE4=Wenn die Kerzen brennen
TTITLE5=Leise rieselt der Schnee
TTITLE6=Stille Nacht, heilige Nacht
TTITLE7=Du wunderschöne Wihnachtszeit
TTITLE8=Heiligabend auf dem Truck
TTITLE9=Weißer Winterwald (Winter Wonderland)
TTITLE10=Weihnachten bei Oma Hildegard
TTITLE11=Daddy, Ich wünsch mir
TTITLE12=Weihnachten kannst du vergessen
TTITLE13=Heiligabend auf der Autobahn
EXTD=
EXTT0=Tom Astor and Brandy
EXTT1=Tom Astor and Der Fredeburger Kinderchor
EXTT2=Tom Astor
EXTT3=Tom Astor
EXTT4=Tom Astor
EXTT5=Tom Astor and Der Fredeburger Kinderchor
EXTT6=Tom Astor and Brandy
EXTT7=Tom Astor and Der Fredeburger Kinderchor
EXTT8=Tom Astor
EXTT9=Tom Astor
EXTT10=Tom Astor mit Oma Hildegard und einem Trucker Chor
EXTT11=Tom Astor and Der Fredeburger Kinderchor
EXTT12=Tom Astor
EXTT13=Tom Astor
PLAYORDER=
